<svg xmlns="http://www.w3.org/2000/svg" viewBox="0 0 500 500">
  <rect height="100%" width="100%" fill="#1f232e" />
  <path d="M 464.7 102.688 C 464.7 116.118 460.223 128.559 452.26 139.009 L 451.762 140.004 C 449.776 142.489 447.783 144.98 445.292 146.966 L 445.292 352.47 C 445.292 370.876 432.857 386.797 415.441 390.776 C 398.024 395.259 379.119 387.296 370.658 371.374 L 308.964 257.928 C 307.468 268.873 303.488 279.324 296.522 288.277 L 296.023 289.273 C 294.029 291.765 291.547 294.249 288.556 296.74 L 288.556 438.547 C 288.556 455.957 277.611 471.887 260.692 477.36 C 256.713 478.847 252.735 479.346 248.756 479.346 C 234.819 479.346 221.389 471.887 213.923 458.947 L 131.324 311.665 L 131.324 354.454 C 143.268 365.403 151.233 381.324 151.233 398.74 C 151.233 431.581 124.364 458.45 91.523 458.45 C 58.683 458.45 31.815 431.581 31.815 398.74 C 31.815 380.825 39.772 364.903 51.715 353.957 L 51.715 161.401 C 51.715 146.475 59.182 132.041 72.612 125.073 C 92.512 114.625 115.902 122.092 126.348 140.502 L 187.055 247.978 C 187.552 234.54 192.527 221.108 201.481 210.661 L 202.478 209.664 C 204.472 207.172 206.955 205.189 209.445 202.695 L 209.445 63.378 C 209.445 44.964 221.888 29.044 239.297 25.064 C 256.713 20.588 275.624 28.546 284.079 44.467 L 365.682 194.739 L 365.682 146.966 C 362.701 143.985 359.71 141.001 357.226 137.514 L 356.23 137.016 C 349.263 127.065 345.282 115.122 345.282 102.688 C 345.282 69.848 372.151 42.981 404.993 42.981 C 438.329 42.981 464.7 69.848 464.7 102.688 Z" fill="black" style="stroke-width: 1;"></path>
  <path d="M 425.391 158.418 L 425.391 350.476 C 425.391 357.943 421.911 364.903 415.441 368.889 C 405.491 374.862 393.05 370.876 388.074 361.424 L 275.127 155.928 C 273.632 152.945 269.154 153.935 269.154 157.421 L 269.154 192.247 C 256.222 187.77 242.287 187.273 229.353 191.749 L 229.353 62.381 C 229.353 53.428 235.319 45.465 244.278 42.981 C 253.232 40.987 262.195 44.964 266.671 52.93 L 379.119 257.928 C 380.616 260.916 385.589 259.921 385.589 256.433 L 385.589 158.418 C 392.06 160.903 398.522 161.898 404.993 161.898 C 411.961 161.898 418.928 160.403 425.391 158.418 Z" style="stroke-width: 1; fill: rgb(187, 207, 255);"></path>
  <path d="M 269.154 308.183 L 269.154 439.04 C 269.154 448 263.183 455.957 254.228 458.45 C 252.735 458.947 250.741 458.947 249.253 458.947 C 242.287 458.947 235.319 454.961 231.837 448.997 L 117.894 249.963 C 116.399 246.982 111.921 247.978 111.921 251.457 L 111.921 342.511 C 105.453 340.027 98.983 339.032 92.02 339.032 C 85.054 339.032 78.583 340.027 72.114 342.511 L 72.114 159.905 C 72.114 150.953 78.086 142.987 87.039 140.495 C 96.001 138.012 104.954 141.992 109.431 149.955 L 223.375 348.982 C 224.869 351.963 229.845 350.476 229.845 347.487 L 229.845 308.675 C 235.816 310.667 242.287 311.665 248.756 311.665 C 255.226 311.665 262.187 310.667 269.154 308.183 Z" style="stroke-width: 1; fill: rgb(238, 213, 80);"></path>
  <path d="M 248.259 290.767 C 270.237 290.767 288.06 272.944 288.06 250.959 C 288.06 228.975 270.237 211.152 248.259 211.152 C 226.273 211.152 208.451 228.975 208.451 250.959 C 208.451 272.944 226.273 290.767 248.259 290.767 Z" fill="white" style="stroke-width: 1;"></path>
  <path d="M 404.993 142.496 C 426.977 142.496 444.8 124.673 444.8 102.688 C 444.8 80.704 426.977 62.881 404.993 62.881 C 383.006 62.881 365.183 80.704 365.183 102.688 C 365.183 124.673 383.006 142.496 404.993 142.496 Z" fill="white" style="stroke-width: 1;"></path>
  <path d="M 91.516 439.046 C 113.502 439.046 131.324 421.225 131.324 399.237 C 131.324 377.252 113.502 359.43 91.516 359.43 C 69.538 359.43 51.715 377.252 51.715 399.237 C 51.715 421.225 69.538 439.046 91.516 439.046 Z" fill="white" style="stroke-width: 1;"></path>
</svg>